# xmcd
#
# Track frame offsets:
#	150
#	14553
#	32714
#	45234
#	60404
#	76461
#	92348
#	108744
#	125151
#	144689
#	157432
#
# Disc length: 2327 seconds
#
# Revision: 0
# Processed by: cddbd v1.4PL0 Copyright (c) Steve Scherf et al.
# Submitted via: MusicManager 7.0.3.0 
#
DISCID=9509150b
DTITLE=Dillard and Clark - Through the morning, through the night
DYEAR=1969
DGENRE=country
TTITLE0=No longer a sweetheart of mine
TTITLE1=Through the morning, through the night
TTITLE2=Rocky top
TTITLE3=So sad
TTITLE4=Corner street bar
TTITLE5=I bowed my head and cried holy
TTITLE6=Kansas City Southern
TTITLE7=Four walls
TTITLE8=Polly
TTITLE9=Roll in my sweet baby's arms
TTITLE10=Don't let me down
EXTD=
EXTT0=
EXTT1=
EXTT2=
EXTT3=
EXTT4=
EXTT5=
EXTT6=
EXTT7=
EXTT8=
EXTT9=
EXTT10=
PLAYORDER=
